<svg xmlns="http://www.w3.org/2000/svg" xmlns:svg="http://www.w3.org/2000/svg" xmlns:xlink="http://www.w3.org/1999/xlink" id="svg2" width="16" height="16" version="1.1" viewBox="0 0 16 16"><metadata id="metadata20"/><defs id="defs4"><linearGradient id="linearGradient3809"><stop style="stop-color:#e5e5e5" id="stop7" offset="0"/><stop style="stop-color:#f9f9f9" id="stop9" offset="1"/></linearGradient><linearGradient id="linearGradient3832" x1="1" x2="15" gradientTransform="translate(0 -16)" gradientUnits="userSpaceOnUse" xlink:href="#linearGradient3809"/><linearGradient id="linearGradient3053"><stop style="stop-color:#4487da;stop-opacity:1" id="stop3055" offset="0"/><stop style="stop-color:#5090ff;stop-opacity:1" id="stop3057" offset="1"/></linearGradient><linearGradient id="linearGradient3046"><stop style="stop-color:#559eff;stop-opacity:1" id="stop3049" offset="0"/><stop style="stop-color:#64adff;stop-opacity:1" id="stop3051" offset="1"/></linearGradient><linearGradient id="linearGradient3868"><stop id="stop3870" offset="0" style="stop-color:#000;stop-opacity:1"/><stop id="stop3872" offset="1" style="stop-color:#000;stop-opacity:.5"/></linearGradient><linearGradient id="linearGradient3044"><stop id="stop3046" offset="0" style="stop-color:#1f2a2c;stop-opacity:1"/><stop id="stop3048" offset="1" style="stop-color:#253235;stop-opacity:1"/></linearGradient><linearGradient id="linearGradient3036"><stop id="stop3038" offset="0" style="stop-color:#293739;stop-opacity:1"/><stop id="stop3040" offset="1" style="stop-color:#314245;stop-opacity:1"/></linearGradient><linearGradient id="linearGradient15404"><stop style="stop-color:#515151;stop-opacity:1" id="stop15406" offset="0"/><stop style="stop-color:#292929;stop-opacity:1" id="stop15408" offset="1"/></linearGradient><linearGradient id="linearGradient5891-0-4" x1="205.841" x2="206.748" y1="246.709" y2="231.241" gradientUnits="userSpaceOnUse" xlink:href="#linearGradient5872-5-1"/><linearGradient id="linearGradient5872-5-1"><stop id="stop5874-4-4" offset="0" style="stop-color:#17520b;stop-opacity:1"/><stop id="stop5876-0-5" offset="1" style="stop-color:#31af18;stop-opacity:1"/></linearGradient><linearGradient id="linearGradient14219" x1="-93.031" x2="-93.031" y1="-396.347" y2="-388.73" gradientTransform="matrix(1.5918367,0,0,0.85714285,-256.56122,59.685418)" gradientUnits="userSpaceOnUse" xlink:href="#linearGradient15404"/><linearGradient id="linearGradient10013-4-63-6"><stop id="stop10015-2-76-1" offset="0" style="stop-color:#333;stop-opacity:1"/><stop id="stop10017-46-15-8" offset="1" style="stop-color:#292929;stop-opacity:1"/></linearGradient><linearGradient id="linearGradient10597-5"><stop id="stop10599-2" offset="0" style="stop-color:#16191a;stop-opacity:1"/><stop id="stop10601-5" offset="1" style="stop-color:#2b3133;stop-opacity:1"/></linearGradient><linearGradient id="linearGradient15374" x1="921.328" x2="921.225" y1="-330.051" y2="-322.164" gradientTransform="matrix(1.5918367,0,0,0.85714285,-1456.5464,275.45191)" gradientUnits="userSpaceOnUse" xlink:href="#linearGradient10013-4-63-6"/><linearGradient id="linearGradient15376" x1="1203.918" x2="1203.918" y1="-217.567" y2="-227.08" gradientTransform="translate(-1199.9852,216.38048)" gradientUnits="userSpaceOnUse" xlink:href="#linearGradient10597-5"/><linearGradient id="linearGradient3024" x1="205.841" x2="206.748" y1="246.709" y2="231.241" gradientTransform="matrix(0.84337,0,0,0.84337,179.95295,329.68771)" gradientUnits="userSpaceOnUse" xlink:href="#linearGradient5872-5-1"/><linearGradient id="linearGradient3042" x1="404" x2="398.375" y1="514.237" y2="503.703" gradientTransform="translate(-49.497475,26.162951)" gradientUnits="userSpaceOnUse" xlink:href="#linearGradient3036"/><linearGradient id="linearGradient3050" x1="402.25" x2="396.617" y1="507.862" y2="502.854" gradientTransform="translate(-49.497475,26.162951)" gradientUnits="userSpaceOnUse" xlink:href="#linearGradient3044"/><linearGradient id="linearGradient3853" x1="399.042" x2="396.617" y1="511.906" y2="502.854" gradientTransform="translate(-47.500008,26.499985)" gradientUnits="userSpaceOnUse" xlink:href="#linearGradient3053"/><linearGradient id="linearGradient3856" x1="404" x2="398.375" y1="514.237" y2="503.703" gradientTransform="translate(-47.500008,26.499985)" gradientUnits="userSpaceOnUse" xlink:href="#linearGradient3046"/><linearGradient id="linearGradient3866" x1="344.531" x2="344.531" y1="535.831" y2="524.843" gradientUnits="userSpaceOnUse" xlink:href="#linearGradient3868"/><linearGradient id="linearGradient3874" x1="348.51" x2="348.51" y1="541.849" y2="526.466" gradientUnits="userSpaceOnUse" xlink:href="#linearGradient3868"/></defs><g id="layer1" transform="matrix(1.0666667,0,0,1.0666667,-368.00001,-560.91968)"><rect id="rect3024" width="15" height="15" x="345" y="525.862" rx="3.063" ry="3.063" style="fill:url(#linearGradient3856);fill-opacity:1;stroke:none"/><rect style="fill:url(#linearGradient3853);fill-opacity:1;stroke:none" id="rect3026" width="13" height="13" x="346" y="526.862" rx="2.654" ry="2.654"/><path id="rect3067" d="m 355.86982,529.92913 c -0.25059,0.0469 -0.50014,0.20958 -0.65625,0.4375 l -4.03125,5.90625 -1.53125,-1.53125 c -0.39069,-0.39069 -1.01556,-0.39069 -1.40625,0 -0.39069,0.39069 -0.39069,1.01556 0,1.40625 l 2.21875,2.21875 0.15625,0.15625 c 0.0421,0.0416 0.0743,0.0903 0.125,0.125 0.0391,0.0268 0.0838,0.042 0.125,0.0625 0.0511,0.0252 0.10246,0.0466 0.15625,0.0625 0.0304,0.009 0.063,0.025 0.0937,0.0312 0.0197,0.004 0.0426,-0.003 0.0625,0 0.0844,0.0108 0.16557,0.0108 0.25,0 0.0844,-0.0109 0.16999,-0.0299 0.25,-0.0625 0.12559,-0.0497 0.24493,-0.11869 0.34375,-0.21875 0.0416,-0.0421 0.0903,-0.0744 0.125,-0.125 l 4.71875,-6.90625 c 0.31222,-0.45584 0.20584,-1.09402 -0.25,-1.40625 -0.22792,-0.15611 -0.49941,-0.20311 -0.75,-0.15625 z" style="opacity:.2;fill:#000;fill-opacity:1;stroke:none"/><path id="rect3828" d="m 355.86982,528.9293 c -0.25059,0.0469 -0.50014,0.20958 -0.65625,0.4375 l -4.03125,5.90625 -1.53125,-1.53125 c -0.39069,-0.39069 -1.01556,-0.39069 -1.40625,0 -0.39069,0.39069 -0.39069,1.01556 0,1.40625 l 2.21875,2.21875 0.15625,0.15625 c 0.0421,0.0416 0.0743,0.0903 0.125,0.125 0.0391,0.0268 0.0838,0.042 0.125,0.0625 0.0511,0.0252 0.10246,0.0466 0.15625,0.0625 0.0304,0.009 0.063,0.025 0.0937,0.0312 0.0197,0.004 0.0426,-0.003 0.0625,0 0.0844,0.0109 0.16557,0.0109 0.25,0 0.0844,-0.0109 0.16999,-0.0299 0.25,-0.0625 0.12559,-0.0497 0.24493,-0.1187 0.34375,-0.21875 0.0416,-0.0421 0.0903,-0.0743 0.125,-0.125 l 4.71875,-6.90625 c 0.31222,-0.45584 0.20584,-1.09402 -0.25,-1.40625 -0.22792,-0.15611 -0.49941,-0.20311 -0.75,-0.15625 z" style="fill:#e9f1fc;fill-opacity:1;stroke:none"/></g></svg>